HIERARCHY
ROOT Hips
{
	OFFSET -0.001795 -0.223333 0.028219
	CHANNELS 6 Xposition Yposition Zposition Zrotation Yrotation Xrotation 
	JOINT LeftUpLeg
	{
		OFFSET 0.069520 -0.091406 -0.006815
		CHANNELS 3 Zrotation Yrotation Xrotation
		JOINT LeftLeg
		{
			OFFSET 0.034277 -0.375199 -0.004496
			CHANNELS 3 Zrotation Yrotation Xrotation
			JOINT LeftFoot
			{
				OFFSET -0.013596 -0.397961 -0.043693
				CHANNELS 3 Zrotation Yrotation Xrotation
				JOINT LeftToe
				{
					OFFSET 0.026358 -0.055791 0.119288
					CHANNELS 3 Zrotation Yrotation Xrotation
					End Site
					{
						OFFSET 0.000000 0.000000 0.000000
					}
				}
			}
		}
	}
	JOINT RightUpLeg
	{
		OFFSET -0.067670 -0.090522 -0.004320
		CHANNELS 3 Zrotation Yrotation Xrotation
		JOINT RightLeg
		{
			OFFSET -0.038290 -0.382569 -0.008850
			CHANNELS 3 Zrotation Yrotation Xrotation
			JOINT RightFoot
			{
				OFFSET 0.015774 -0.398415 -0.042312
				CHANNELS 3 Zrotation Yrotation Xrotation
				JOINT RightToe
				{
					OFFSET -0.025372 -0.048144 0.123348
					CHANNELS 3 Zrotation Yrotation Xrotation
					End Site
					{
						OFFSET 0.000000 0.000000 0.000000
					}
				}
			}
		}
	}
	JOINT Spine
	{
		OFFSET -0.002533 0.108963 -0.026696
		CHANNELS 3 Zrotation Yrotation Xrotation
		JOINT Spine1
		{
			OFFSET 0.005487 0.135180 0.001092
			CHANNELS 3 Zrotation Yrotation Xrotation
			JOINT Spine2
			{
				OFFSET 0.001457 0.052922 0.025425
				CHANNELS 3 Zrotation Yrotation Xrotation
				JOINT Neck
				{
					OFFSET -0.002778 0.213870 -0.042857
					CHANNELS 3 Zrotation Yrotation Xrotation
					JOINT Head
					{
						OFFSET 0.005152 0.064970 0.051349
						CHANNELS 3 Zrotation Yrotation Xrotation
						End Site
						{
							OFFSET 0.000000 0.000000 0.000000
						}
					}
				}
				JOINT LeftShoulder
				{
					OFFSET 0.078845 0.121749 -0.034090
					CHANNELS 3 Zrotation Yrotation Xrotation
					JOINT LeftArm
					{
						OFFSET 0.090977 0.030469 -0.008868
						CHANNELS 3 Zrotation Yrotation Xrotation
						JOINT LeftForeArm
						{
							OFFSET 0.259612 -0.012772 -0.027456
							CHANNELS 3 Zrotation Yrotation Xrotation
							JOINT LeftHand
							{
								OFFSET 0.249234 0.008986 -0.001171
								CHANNELS 3 Zrotation Yrotation Xrotation
								End Site
								{
									OFFSET 0.000000 0.000000 0.000000
								}
							}
						}
					}
				}
				JOINT RightShoulder
				{
					OFFSET -0.081759 0.118833 -0.038615
					CHANNELS 3 Zrotation Yrotation Xrotation
					JOINT RightArm
					{
						OFFSET -0.096012 0.032551 -0.009143
						CHANNELS 3 Zrotation Yrotation Xrotation
						JOINT RightForeArm
						{
							OFFSET -0.253742 -0.013329 -0.021401
							CHANNELS 3 Zrotation Yrotation Xrotation
							JOINT RightHand
							{
								OFFSET -0.255298 0.007772 -0.005559
								CHANNELS 3 Zrotation Yrotation Xrotation
								End Site
								{
									OFFSET 0.000000 0.000000 0.000000
								}
							}
						}
					}
				}
			}
		}
	}
}
MOTION
Frames: 18
Frame Time: 0.050000
0.000000 0.952952 0.000000 -1.141735 -0.067291 0.148027 5.977697 0.177289 6.498576 -4.126885 0.434343 -7.733976 2.741059 9.197192 12.474795 0.000000 0.000000 0.000000 -1.879632 -0.451199 5.892389 2.567845 -0.350710 -4.634089 -3.301506 -11.247784 12.128275 0.000000 0.000000 0.000000 -1.955604 -0.021722 1.613365 3.583955 -0.344443 -22.609477 -1.230232 0.154915 29.190305 1.029208 0.993837 -26.217726 0.000000 0.000000 0.000000 -27.260887 3.159570 -3.712398 -52.677069 -6.015286 -6.236750 -5.959194 -18.786167 1.950727 0.000000 0.000000 0.000000 18.132310 1.577683 -0.018458 60.622213 3.707830 -6.842363 3.691047 21.443349 1.641180 0.000000 0.000000 0.000000 
0.000079 0.951768 0.000533 -1.200661 -0.587111 0.551335 6.530852 0.146459 6.520967 -4.631799 0.459932 -8.129299 2.813833 9.191472 12.167502 0.000000 0.000000 0.000000 -1.880191 -0.366761 4.970960 2.646677 -0.338858 -3.806749 -3.109072 -10.702576 10.956922 0.000000 0.000000 0.000000 -1.857865 0.001033 0.717507 3.594409 -0.409526 -21.692521 -1.515704 0.503299 28.585329 0.812238 1.139660 -26.234862 0.000000 0.000000 0.000000 -27.956061 4.254170 -4.572582 -52.304666 -5.731065 -6.247674 -6.317225 -18.981569 2.031062 0.000000 0.000000 0.000000 17.867532 1.235546 -0.212263 61.990918 2.359130 -7.582945 3.013350 23.409642 1.710206 0.000000 0.000000 0.000000 
0.000245 0.951510 0.000813 -0.776761 -0.526759 0.727460 6.143914 0.139208 5.705839 -5.132176 0.496596 -6.465634 2.657860 8.685255 11.034212 0.000000 0.000000 0.000000 -2.172233 -0.348851 5.013356 2.147575 -0.317710 -4.515852 -3.017859 -10.623436 11.425130 0.000000 0.000000 0.000000 -1.808820 0.004344 0.599890 2.874786 -0.186753 -22.244248 -1.492415 -0.108650 28.812517 0.634628 1.116619 -25.888296 0.000000 0.000000 0.000000 -27.566646 3.900778 -4.056649 -52.692276 -5.678080 -6.382685 -4.571388 -18.547733 1.720097 0.000000 0.000000 0.000000 18.012133 2.028214 0.054202 61.943781 1.940951 -7.798893 2.553582 22.297251 1.492841 0.000000 0.000000 0.000000 
0.000334 0.951811 0.001093 -0.697309 -0.759776 0.699107 6.248906 0.148702 5.975023 -5.247464 0.503669 -6.680608 2.478672 8.457147 11.409645 0.000000 0.000000 0.000000 -2.310221 -0.343732 5.104109 2.289424 -0.323403 -4.403899 -3.016727 -10.754944 11.944439 0.000000 0.000000 0.000000 -2.045458 0.013526 0.368996 3.252317 -0.286558 -22.288503 -1.779703 -0.068355 28.876595 0.731076 1.008927 -25.343203 0.000000 0.000000 0.000000 -28.232649 4.878780 -4.759053 -52.562781 -5.254735 -6.549796 -5.037069 -18.166345 1.762659 0.000000 0.000000 0.000000 18.089500 2.127597 0.078796 61.893886 1.674063 -7.944290 3.205515 22.114370 1.587901 0.000000 0.000000 0.000000 
0.000351 0.952509 0.001206 -0.668752 -0.502955 0.559119 6.066571 0.150777 5.826239 -5.143456 0.497546 -6.409815 2.321634 8.221336 11.391052 0.000000 0.000000 0.000000 -2.185143 -0.365246 5.217632 1.949597 -0.308024 -4.650706 -2.933625 -10.593732 12.036836 0.000000 0.000000 0.000000 -2.018323 0.004523 0.689140 3.416797 -0.349392 -21.869329 -2.012721 -0.127477 28.184237 0.611752 1.063401 -24.639409 0.000000 0.000000 0.000000 -27.974034 4.925471 -4.832810 -52.758342 -5.055318 -6.561044 -5.040200 -18.211628 1.757495 0.000000 0.000000 0.000000 17.891786 2.044748 0.052619 62.056409 1.517849 -7.960760 3.322897 21.317277 1.532740 0.000000 0.000000 0.000000 
0.000414 0.953077 0.001261 -0.580713 -0.435188 0.565340 6.041999 0.146566 5.713377 -5.183675 0.499714 -6.331218 2.298176 8.181801 11.361487 0.000000 0.000000 0.000000 -2.400056 -0.362313 5.369200 2.020149 -0.315312 -4.774369 -2.815421 -10.431025 12.344002 0.000000 0.000000 0.000000 -2.242899 0.010792 0.568598 3.543928 -0.361381 -22.214299 -2.077813 -0.294888 28.603971 0.607349 1.027220 -24.459537 0.000000 0.000000 0.000000 -28.021412 5.284919 -5.011378 -52.886561 -5.004502 -6.652713 -5.385473 -18.380609 1.842063 0.000000 0.000000 0.000000 17.789013 1.922609 -0.026914 61.928824 1.388243 -8.066011 3.731731 21.077580 1.577846 0.000000 0.000000 0.000000 
0.000472 0.953345 0.001183 -0.621437 -0.388594 0.515641 6.043233 0.146347 5.717438 -5.181992 0.498881 -6.367400 2.275511 8.256216 11.797245 0.000000 0.000000 0.000000 -2.294673 -0.360823 5.243338 1.882949 -0.301986 -4.553343 -2.712582 -10.213713 12.240554 0.000000 0.000000 0.000000 -2.254329 0.008191 0.679198 3.712044 -0.417800 -21.987015 -2.225679 -0.402509 28.336546 0.742401 0.923891 -24.277809 0.000000 0.000000 0.000000 -28.144695 5.351785 -5.058294 -52.659139 -4.708223 -6.735130 -5.638103 -18.757823 1.924122 0.000000 0.000000 0.000000 17.857963 2.104861 0.040515 61.778291 1.330458 -8.050711 3.744461 21.167356 1.580852 0.000000 0.000000 0.000000 
0.000550 0.953312 0.001010 -0.717986 -0.426977 0.522902 6.057323 0.136807 5.488766 -5.185013 0.502575 -6.062118 2.585028 8.679485 11.479804 0.000000 0.000000 0.000000 -2.266861 -0.352176 5.113770 2.058287 -0.308430 -4.325992 -2.717126 -10.162385 11.949235 0.000000 0.000000 0.000000 -2.208758 0.006843 0.711125 3.671276 -0.408119 -21.984338 -2.155881 -0.400551 28.472705 0.788252 0.878668 -24.092186 0.000000 0.000000 0.000000 -28.305002 5.102605 -4.902771 -52.174128 -4.808098 -6.664360 -6.043667 -19.103335 2.027221 0.000000 0.000000 0.000000 18.051824 2.072984 0.013214 61.485309 1.497827 -7.952948 3.806803 21.218613 1.596081 0.000000 0.000000 0.000000 
0.000620 0.953201 0.000778 -0.694454 -0.386528 0.507241 6.070550 0.134331 5.456658 -5.271975 0.507377 -6.058509 2.552445 8.634556 11.493583 0.000000 0.000000 0.000000 -2.314872 -0.344532 5.053981 2.113257 -0.311154 -4.269282 -2.722960 -10.181539 12.006377 0.000000 0.000000 0.000000 -2.245129 0.006064 0.768748 3.814094 -0.444906 -21.981621 -2.197050 -0.335679 28.440755 0.903148 0.806357 -23.822769 0.000000 0.000000 0.000000 -28.403545 4.984001 -4.870597 -51.943228 -4.988426 -6.560105 -6.422922 -19.326639 2.112345 0.000000 0.000000 0.000000 18.180382 2.069490 0.025726 61.131203 1.539068 -7.892565 4.009991 21.447444 1.652017 0.000000 0.000000 0.000000 
0.000652 0.953256 0.000505 -0.730418 -0.420759 0.461757 6.062823 0.134522 5.420222 -5.333858 0.511529 -6.028630 2.696971 8.818463 11.286041 0.000000 0.000000 0.000000 -2.387494 -0.335645 5.006354 2.285083 -0.319663 -4.115033 -2.801789 -10.288133 11.802519 0.000000 0.000000 0.000000 -2.219184 0.006459 0.715551 3.796202 -0.456004 -21.734234 -2.168515 -0.234430 28.409619 0.965212 0.772832 -23.668394 0.000000 0.000000 0.000000 -28.469224 4.742308 -4.753732 -51.712470 -5.067460 -6.492578 -6.712352 -19.585491 2.185615 0.000000 0.000000 0.000000 18.411638 2.206837 0.107299 60.961651 1.727561 -7.777003 3.787243 21.596354 1.629512 0.000000 0.000000 0.000000 
0.000628 0.953331 0.000188 -0.714587 -0.282707 0.491814 6.193790 0.123321 5.421184 -5.482837 0.515796 -6.185256 2.594787 8.684656 11.375571 0.000000 0.000000 0.000000 -2.480760 -0.329533 4.991827 2.471458 -0.333808 -4.135226 -2.875922 -10.425950 11.862815 0.000000 0.000000 0.000000 -2.271393 0.006967 0.736792 3.877093 -0.471695 -21.786840 -2.211308 -0.281352 28.427240 1.033789 0.739122 -23.714454 0.000000 0.000000 0.000000 -28.450970 4.603879 -4.674527 -51.505745 -5.327674 -6.364013 -7.009183 -19.959274 2.279267 0.000000 0.000000 0.000000 18.514051 2.148421 0.083050 60.851654 1.838289 -7.713506 3.870799 21.584753 1.644657 0.000000 0.000000 0.000000 
0.000545 0.953470 -0.000120 -0.745539 -0.073110 0.476248 6.361650 0.110094 5.460187 -5.624688 0.518637 -6.306778 2.455172 8.478245 11.381492 0.000000 0.000000 0.000000 -2.461183 -0.340216 5.078883 2.582261 -0.343008 -4.157593 -2.875352 -10.404163 11.876740 0.000000 0.000000 0.000000 -2.359101 0.008206 0.729670 3.981332 -0.493620 -21.800636 -2.167778 -0.440108 28.476813 1.155499 0.652989 -23.662081 0.000000 0.000000 0.000000 -28.467366 4.621061 -4.676847 -51.279690 -5.578441 -6.248824 -7.564999 -20.198406 2.406996 0.000000 0.000000 0.000000 18.506513 2.152739 0.080452 60.828820 1.932162 -7.668219 3.840112 21.640594 1.643319 0.000000 0.000000 0.000000 
0.000462 0.953696 -0.000408 -0.818815 0.068767 0.486587 6.522098 0.099728 5.549873 -5.678988 0.517439 -6.428846 2.299214 8.258155 11.464762 0.000000 0.000000 0.000000 -2.395073 -0.353826 5.169280 2.632523 -0.351327 -4.382875 -2.848564 -10.378437 12.060754 0.000000 0.000000 0.000000 -2.415695 0.010267 0.669504 4.029492 -0.501101 -21.849742 -2.044939 -0.505215 28.617216 1.144690 0.663238 -23.709288 0.000000 0.000000 0.000000 -28.599557 4.613255 -4.697723 -50.921403 -5.693801 -6.180296 -8.049213 -20.629969 2.549213 0.000000 0.000000 0.000000 18.614337 2.016540 0.014751 60.763547 1.941687 -7.677975 4.030089 21.818591 1.697081 0.000000 0.000000 0.000000 
0.000413 0.953756 -0.000651 -0.901408 0.073163 0.455776 6.629108 0.093457 5.559200 -5.795861 0.523804 -6.408475 2.296478 8.233961 11.380497 0.000000 0.000000 0.000000 -2.315105 -0.362856 5.208075 2.693399 -0.356156 -4.428190 -2.740346 -10.159679 11.988449 0.000000 0.000000 0.000000 -2.455878 0.010354 0.683738 4.162192 -0.534791 -21.875366 -1.973848 -0.546862 28.678935 1.266643 0.572754 -23.604400 0.000000 0.000000 0.000000 -28.763389 4.684927 -4.752157 -50.545260 -5.833401 -6.101487 -8.475464 -20.773488 2.646396 0.000000 0.000000 0.000000 18.608235 2.032792 0.016890 60.573782 1.884863 -7.697362 4.237512 22.111408 1.759546 0.000000 0.000000 0.000000 
0.000397 0.953883 -0.000837 -0.960152 0.135888 0.431830 6.687224 0.089809 5.604750 -5.838272 0.522781 -6.514022 2.252296 8.182083 11.441042 0.000000 0.000000 0.000000 -2.278236 -0.377150 5.340064 2.658977 -0.357387 -4.609867 -2.668536 -10.048367 12.122267 0.000000 0.000000 0.000000 -2.471312 0.010882 0.656987 4.134278 -0.526663 -21.877574 -1.898407 -0.543972 28.721272 1.313606 0.552853 -23.645122 0.000000 0.000000 0.000000 -28.853696 4.825773 -4.875164 -50.392409 -5.751786 -6.121221 -8.756605 -20.911724 2.717248 0.000000 0.000000 0.000000 18.605341 1.887890 -0.047583 60.523314 1.756237 -7.765349 4.655270 22.446923 1.871138 0.000000 0.000000 0.000000 
0.000407 0.953836 -0.000969 -0.956576 0.168788 0.374815 6.808311 0.085324 5.694652 -5.925812 0.524737 -6.648882 2.176920 8.046917 11.373529 0.000000 0.000000 0.000000 -2.256062 -0.393099 5.508588 2.554359 -0.354446 -4.824094 -2.562739 -9.837607 12.076051 0.000000 0.000000 0.000000 -2.553228 0.010582 0.713642 4.190370 -0.536958 -21.935921 -1.892035 -0.556864 28.759680 1.328945 0.538212 -23.578951 0.000000 0.000000 0.000000 -28.879030 5.036236 -5.019075 -50.323037 -5.666787 -6.155508 -8.945454 -20.768882 2.733928 0.000000 0.000000 0.000000 18.517015 1.866372 -0.051224 60.477764 1.443813 -7.923120 5.089650 23.149614 2.024598 0.000000 0.000000 0.000000 
0.000379 0.954011 -0.001069 -0.964931 0.165787 0.299430 6.870951 0.085763 5.796039 -5.940872 0.524439 -6.716888 2.135300 8.016546 11.520735 0.000000 0.000000 0.000000 -2.168641 -0.412244 5.660548 2.395385 -0.347264 -4.982621 -2.538748 -9.803143 12.118980 0.000000 0.000000 0.000000 -2.614009 0.010232 0.749055 4.254554 -0.549051 -22.007887 -1.895662 -0.497628 28.845221 1.360927 0.527089 -23.590852 0.000000 0.000000 0.000000 -28.878515 5.155105 -5.114336 -50.274706 -5.392284 -6.265548 -9.165398 -20.628293 2.753495 0.000000 0.000000 0.000000 18.541761 1.669016 -0.142818 60.210753 1.288317 -7.983909 5.768668 23.646351 2.210888 0.000000 0.000000 0.000000 
0.000319 0.954099 -0.001134 -1.003920 0.153744 0.292537 7.038752 0.078837 5.919222 -6.122004 0.530964 -6.851216 1.928933 7.687754 11.553495 0.000000 0.000000 0.000000 -2.153231 -0.426771 5.823523 2.359203 -0.350488 -5.275991 -2.410686 -9.581953 12.193673 0.000000 0.000000 0.000000 -2.587134 0.008896 0.796295 4.240362 -0.539448 -22.107171 -1.908917 -0.517867 28.832772 1.272478 0.577394 -23.582613 0.000000 0.000000 0.000000 -28.766825 5.458096 -5.289951 -50.368542 -5.281225 -6.321229 -9.386582 -20.278389 2.745657 0.000000 0.000000 0.000000 18.417919 1.604254 -0.178422 60.161261 0.964926 -8.136823 6.414434 24.448554 2.430586 0.000000 0.000000 0.000000 
